# xmcd
#
# Track frame offsets: 
#        150
#        12387
#        25206
#        37537
#        48298
#        67277
#        84800
#        96995
#        110539
#        123419
#        136655
#        146310
#        155684
#        169078
#        182922
#        197554
#        209710
#        220666
#        234254
#        247187
#
# Disc length: 3455 seconds
#
# Revision: 0
# Processed by: cddbd v1.5PL3 Copyright (c) Steve Scherf et al.
# Submitted via: ExactAudioCopy v0.95a4
#
DISCID=140d7d14
DTITLE=Howling Wolf - Wolf At Your Door
DYEAR=2001
DGENRE=Blues
TTITLE0=Moanin' at Midnight
TTITLE1=How Many More Years
TTITLE2=Dog Me Around
TTITLE3=Keep What You Got
TTITLE4=House Rockin' Boogie
TTITLE5=Crying at Daybreak
TTITLE6=Passing By Blues
TTITLE7=My Baby Stole Off
TTITLE8=I Want Your Picture
TTITLE9=California Blues
TTITLE10=Look-A-Here Baby
TTITLE11=Smile at Me
TTITLE12=My Baby Walked Off
TTITLE13=CV Wine Blues
TTITLE14=My Troubles And Me
TTITLE15=Chocolate Drop
TTITLE16=Highway Man
TTITLE17=Worried About My Baby
TTITLE18=Driving This Highway
TTITLE19=The Sun is Rising
EXTD=
EXTT0=
EXTT1=
EXTT2=
EXTT3=
EXTT4=
EXTT5=
EXTT6=
EXTT7=
EXTT8=
EXTT9=
EXTT10=
EXTT11=
EXTT12=
EXTT13=
EXTT14=
EXTT15=
EXTT16=
EXTT17=
EXTT18=
EXTT19=
PLAYORDER=
